<?xml version="1.0" encoding="UTF-8"?>
<svg width="31px" height="31px" viewBox="0 0 31 31" version="1.1" xmlns="http://www.w3.org/2000/svg" xmlns:xlink="http://www.w3.org/1999/xlink">
    <!-- Generator: sketchtool 59.1 (101010) - https://sketch.com -->
    <title>7C0C45A3-276A-4E33-B29B-019C77A7781E@3x</title>
    <desc>Created with sketchtool.</desc>
    <g id="Page-1" stroke="none" stroke-width="1" fill="none" fill-rule="evenodd">
        <g id="Home" transform="translate(-1285.000000, -67.000000)" fill="#0A1450" fill-rule="nonzero" stroke="#0A1450" stroke-width="0.5">
            <g id="language" transform="translate(1286.000000, 68.000000)">
                <path d="M14.5298696,1.25518073e-07 C10.1722076,-0.000572091912 6.04442573,1.95536986 3.28473397,5.32848731 C0.525042216,8.70160477 -0.575069585,13.1356154 0.287747532,17.4078685 L0.287747532,17.4369301 C0.288506384,17.5154826 0.310240923,17.5924051 0.350701489,17.6597353 C1.31151521,21.9894468 4.19667909,25.6432133 8.18511503,27.5812229 C12.173551,29.5192325 16.8285139,29.5292676 20.8252653,27.6084725 C23.289869,28.6464892 25.9488883,29.1420588 28.6218708,29.06155 C28.8192214,29.0467714 28.9877229,28.9133709 29.0474197,28.7246481 C29.1071166,28.5359253 29.0459947,28.3298609 28.893057,28.2042342 C27.3240507,26.9061517 26.6363998,24.7023175 26.3603709,22.9634681 C28.1231617,20.5059424 29.0669579,17.5553471 29.0577058,14.5307751 C29.0577058,6.50564975 22.553372,1.25518073e-07 14.5298696,1.25518073e-07 Z M28.0117016,13.0776976 L20.7090426,13.0776976 C20.389241,13.0764156 20.0830471,12.9481184 19.8578214,12.7210304 C19.6325957,12.4939424 19.5067879,12.186666 19.5080748,11.8667997 C19.5093606,11.2900137 19.281512,10.7363406 18.8746533,10.327583 C18.4677947,9.91882535 17.915254,9.68846665 17.3385846,9.68718349 L16.7768416,9.68718349 C16.1082164,9.68718349 15.5661886,9.14504604 15.5661886,8.47628558 C15.5661886,7.80752512 16.1082164,7.26538768 16.7768416,7.26538768 L19.5855566,7.26538768 C20.7852979,7.26005435 21.7550587,6.2857673 21.7550468,5.08577145 C21.7492898,4.43707728 22.2595264,3.90100604 22.9075885,3.87487354 C25.7780851,6.13025667 27.6181717,9.44797186 28.0117016,13.0776976 L28.0117016,13.0776976 Z M2.79622058,7.74974684 L10.0601387,7.74974684 C10.7287639,7.74974684 11.2707917,8.29188428 11.2707917,8.96064474 C11.2707917,9.6294052 10.7287639,10.1715426 10.0601387,10.1715426 L7.78895363,10.1715426 C6.58542826,10.1715426 5.6097782,11.1473901 5.6097782,12.3511589 C5.6097782,13.5549277 6.58542826,14.5307751 7.78895363,14.5307751 L12.2828976,14.5307751 C12.9515228,14.5307751 13.4935506,15.0729125 13.4935506,15.741673 C13.4935506,16.4104335 12.9515228,16.9525709 12.2828976,16.9525709 L1.19331599,16.9525709 C0.612123756,13.7919353 1.18068815,10.5276125 2.79622058,7.74974684 Z M1.40154831,17.9212892 L12.2828976,17.9212892 C13.486423,17.9212892 14.4620731,16.9454418 14.4620731,15.741673 C14.4620731,14.5379042 13.486423,13.5620568 12.2828976,13.5620568 L7.78895363,13.5620568 C7.12032842,13.5620568 6.57830061,13.0199193 6.57830061,12.3511589 C6.57830061,11.6823984 7.12032842,11.140261 7.78895363,11.140261 L10.0359256,11.140261 C11.239451,11.140261 12.2151011,10.1644136 12.2151011,8.96064474 C12.2151011,7.75687593 11.239451,6.78102852 10.0359256,6.78102852 L3.39186187,6.78102852 C7.58170053,0.766075513 15.7920219,-0.829983707 21.9293809,3.17739635 C21.2227521,3.55092187 20.7823142,4.28637809 20.7865244,5.08577145 C20.7878113,5.40563774 20.6620035,5.71291417 20.4367779,5.94000214 C20.2115521,6.1670901 19.9053582,6.29538735 19.5855566,6.29666935 L16.7768416,6.29666935 C15.5733163,6.29666935 14.5976662,7.27251677 14.5976662,8.47628558 C14.5976662,9.6800544 15.5733163,10.6559018 16.7768416,10.6559018 L17.3385846,10.6559018 C17.6583862,10.6571838 17.9645801,10.7854811 18.1898059,11.012569 C18.4150315,11.239657 18.5408393,11.5469334 18.5395524,11.8667997 C18.5395406,13.0667956 19.5093013,14.0410826 20.7090426,14.0464159 L28.0891834,14.0464159 C28.1412626,15.3514844 28.0009362,16.657111 27.6727188,17.9212892 L18.4717559,17.9212892 C17.8950865,17.9225724 17.3425458,18.1529311 16.9356872,18.5616888 C16.5288285,18.9704464 16.3009799,19.5241195 16.3022656,20.1009055 C16.3035594,20.4224505 16.1764242,20.7311995 15.9491017,20.958568 C15.7217792,21.1859365 15.4130926,21.3130973 15.0916126,21.3118034 L12.2828976,21.3118034 C11.7062823,21.310918 11.1533638,21.5412019 10.7477896,21.9511575 C10.1308575,22.5755476 9.94754902,23.5086595 10.2824136,24.3201043 C10.6172781,25.1315491 11.4052551,25.6636718 12.2828976,25.6710358 L12.8446406,25.6710358 C13.1644422,25.6723178 13.4706361,25.8006151 13.6958619,26.027703 C13.9210875,26.254791 14.0468953,26.5620674 14.0456084,26.8819337 L14.0456084,28.0928316 C8.04390384,27.8771147 2.89906903,23.7383409 1.40154831,17.9212892 Z M27.4305882,28.0928316 C23.6049246,27.9523675 21.0673959,26.6010054 20.8010523,26.6010054 C20.4281711,26.6010054 18.5637655,27.9475239 14.9899178,28.0540829 L14.9899178,26.8819337 C14.9900618,25.6912823 14.0349072,24.7208387 12.8446406,24.7023175 L12.2828976,24.7023175 C11.6142724,24.7023175 11.0722446,24.1601801 11.0722446,23.4914196 C11.0722446,22.8226591 11.6142724,22.2805217 12.2828976,22.2805217 L15.0916126,22.2805217 C16.2913539,22.2751884 17.2611147,21.3009013 17.2611028,20.1009055 C17.2610816,19.4359099 17.7972308,18.8953275 18.4620706,18.8900076 L27.3724768,18.8900076 C26.9201097,20.2049818 26.2666691,21.4418681 25.435432,22.5566064 C25.3602476,22.6599055 25.3289173,22.7887341 25.348265,22.9150322 C25.6194513,24.4988867 26.1763517,26.5622567 27.4305882,28.0928316 L27.4305882,28.0928316 Z" id="Shape"></path>
            </g>
        </g>
    </g>
</svg>