<?xml version="1.0" encoding="UTF-8"?>
<svg width="223px" height="87px" viewBox="0 0 223 87" version="1.1" xmlns="http://www.w3.org/2000/svg" xmlns:xlink="http://www.w3.org/1999/xlink">
    <!-- Generator: sketchtool 59.1 (101010) - https://sketch.com -->
    <title>4BA0BCF9-B32D-4B07-B1BC-1EDAA60E1F33xxxhdpi/</title>
    <desc>Created with sketchtool.</desc>
    <defs>
        <polygon id="path-1" points="0 0.1186875 222.961022 0.1186875 222.961022 86.9998125 0 86.9998125"></polygon>
    </defs>
    <g id="Page-1" stroke="none" stroke-width="1" fill="none" fill-rule="evenodd">
        <g id="Productos" transform="translate(-47.000000, -49.000000)">
            <g id="Group-34" transform="translate(47.000000, 49.000000)">
                <g id="Group-28-Copy">
                    <g id="Group-3">
                        <mask id="mask-2" fill="white">
                            <use xlink:href="#path-1"></use>
                        </mask>
                        <g id="Clip-2"></g>
                        <path d="M131.937294,46.4428125 C131.92755,46.4398125 131.916681,46.4375625 131.906561,46.4338125 L131.968027,46.4338125 C131.957908,46.4375625 131.947039,46.4398125 131.937294,46.4428125 L131.937294,46.4428125 Z M102.81162,46.4398125 C102.782012,46.4461875 102.752403,46.4510625 102.722795,46.4570625 C102.703306,46.4510625 102.683442,46.4461875 102.664328,46.4398125 L102.81162,46.4398125 Z M221.871508,2.4076875 C220.815724,0.9721875 219.140788,0.1235625 217.359412,0.1235625 L26.8285866,0.1186875 C24.3767109,0.1186875 22.2096756,1.7139375 21.4795849,4.0561875 L0.253357983,74.1759375 C-0.276220168,75.8776875 0.0344806723,77.7309375 1.09026387,79.1668125 C2.14604706,80.6015625 3.82135798,81.4494375 5.60273445,81.4494375 L18.4550303,81.4494375 C20.9001597,81.4494375 23.0630723,79.8631875 23.7984101,77.5291875 L25.6918487,71.5235625 C29.7972975,71.4710625 32.5388857,71.2573125 34.466805,70.9790625 C34.3390017,71.7211875 34.2730387,72.3916875 34.2745378,73.0070625 C34.2771613,77.3574375 37.5423311,79.8433125 40.5987429,80.7189375 C41.9824672,81.1209375 44.4706975,81.5844375 51.3552134,81.5844375 L51.5617227,81.5844375 C59.5290067,81.5844375 62.6510067,80.8955625 64.3892824,80.2531875 C65.3641109,81.0174375 66.5724336,81.4524375 67.8392235,81.4524375 L67.8395983,81.4524375 L74.9362454,81.4524375 C74.949363,82.6126875 75.3140336,83.7556875 76.0186387,84.7141875 C77.0744218,86.1478125 78.7482336,86.9956875 80.5281109,86.9956875 L91.5484336,86.9998125 L91.5506824,86.9998125 C93.9965613,86.9998125 96.1590992,85.4128125 96.894437,83.0788125 L97.4161445,81.4220625 C98.1368655,81.4989375 98.8703294,81.5379375 99.6127882,81.5379375 L99.7057361,81.5379375 L99.7364689,81.5379375 C103.82018,81.5379375 106.998398,80.8306875 109.452523,79.3771875 C109.705881,79.2283125 109.945746,79.0584375 110.186736,78.8904375 C110.732805,79.3389375 111.342588,79.7401875 112.018709,80.0799375 C114.000598,81.0864375 116.526682,81.5844375 119.719518,81.5904375 C121.151965,81.5881875 122.584037,81.4531875 123.99737,81.1914375 C124.124049,81.1696875 124.251477,81.1460625 124.379655,81.1209375 C124.980818,81.3380625 125.622834,81.4524375 126.278716,81.4524375 L137.329771,81.4543125 L137.330896,81.4543125 C138.70675,81.4543125 139.992654,80.9518125 140.986222,80.0968125 C141.518424,80.3555625 142.062993,80.5648125 142.601941,80.7226875 C142.611311,80.7245625 142.62218,80.7279375 142.631924,80.7309375 C144.726625,81.3279375 147.991795,81.5855625 153.549555,81.5919375 L153.581037,81.5919375 C161.999943,81.5919375 165.004259,80.8048125 166.680694,80.1196875 C167.262368,79.8849375 167.812934,79.5991875 168.336516,79.2695625 C168.848479,79.6663125 169.413287,80.0154375 170.03244,80.3056875 C171.891398,81.1813125 174.221467,81.5941875 177.357709,81.5994375 L177.370827,81.5994375 L177.397062,81.5994375 C178.887976,81.5919375 180.390509,81.4659375 181.862684,81.2251875 C182.095054,81.1861875 182.331921,81.1449375 182.573661,81.0988125 C183.198061,81.3343125 183.867435,81.4595625 184.551802,81.4595625 L184.552551,81.4595625 L195.596861,81.4584375 C198.049111,81.4584375 200.215771,79.8631875 200.945113,77.5213125 L222.707289,7.3981875 C223.237242,5.6964375 222.926916,3.8431875 221.871508,2.4076875 L221.871508,2.4076875 Z" id="Fill-1" fill="#FEFEFE" mask="url(#mask-2)"></path>
                    </g>
                    <path d="M209.503914,62 L209.50274,62 L209.493347,62 C204.815568,62 201.005479,65.812978 201,70.5007832 C201.010176,75.1921128 204.821438,79 209.494912,79 C214.187172,79 217.995303,75.190938 218,70.5086151 C217.998826,65.8208099 214.187955,62.0054824 209.503914,62" id="Fill-4" fill="#FEFEFE"></path>
                    <path d="M210.309234,69.9593103 C210.13405,70.1203096 209.887664,70.2013748 209.574971,70.2013748 L208.557401,70.2002437 L208.558908,68.3538423 L209.572334,68.3545964 C209.907631,68.3545964 210.160799,68.4398091 210.325057,68.6053329 C210.490068,68.772365 210.57295,69.0016098 210.572202,69.289297 C210.572202,69.5713285 210.483287,69.7964258 210.309234,69.9593103 L210.309234,69.9593103 Z M210.665251,70.7824049 C211.005446,70.6300778 211.262381,70.4227017 211.429653,70.1644241 C211.596171,69.9065237 211.680937,69.5815088 211.682067,69.193527 C211.682067,68.6494475 211.498973,68.2230068 211.138811,67.9258934 C210.774505,67.6261407 210.247825,67.4741906 209.57271,67.4741906 L207.451298,67.4719283 L207.4464,73.2188855 L208.554764,73.2196396 L208.556271,71.0821576 L209.59004,71.0829117 L210.682958,73.2215249 L211.896808,73.222656 L210.619666,70.8031425 L210.665251,70.7824049 Z M209.500753,75.1603033 C206.93592,75.161434 204.842763,73.0752305 204.834475,70.5041439 C204.8454,67.9240082 206.931399,65.848362 209.500377,65.8430833 C212.080279,65.8449686 214.145935,67.9281557 214.159497,70.505275 C214.147065,73.0763616 212.079903,75.1580406 209.500753,75.1603033 L209.500753,75.1603033 Z M209.50113,65 C206.45784,64.9958577 204.003767,67.4628792 204,70.5041439 C204.006781,73.5423923 206.46123,76.0011187 209.497363,76 C212.534249,76.0063973 214.997363,73.5393759 215,70.5060291 C214.999247,67.4628792 212.536133,65.0030216 209.50113,65 L209.50113,65 Z" id="Fill-6" fill="#009EE2"></path>
                    <path d="M30.4869655,52.1066224 C30.4351856,52.3223785 30.3739569,52.5700986 30.2692633,52.8410305 L28.2819745,59.137914 C28.2498483,59.1675947 28.2400215,59.2170626 28.2400215,59.2646279 C27.8393889,60.5119801 26.7244209,61.1352757 24.8992749,61.1345146 C24.7700142,61.1360367 24.5621388,61.1333731 24.2533494,61.1269042 C23.9517411,61.1086391 23.7351727,61.1017897 23.580589,61.1017897 L26.816642,50.8505181 L27.9009956,50.8444298 C28.9981997,50.8413856 29.7121572,50.9045523 30.0579863,51.0240363 C30.4000358,51.1488477 30.5686039,51.375639 30.5701157,51.6907114 C30.5701157,51.7584444 30.5410131,51.8885831 30.4869655,52.1066224 M41.3267224,46.7267977 C39.5408838,46.2435343 35.8546861,46.0053273 30.2681294,46 L15.2822033,46 L6,76 L18.9612198,76 L22.1126108,65.9393701 L24.1199312,65.9393701 C30.5856118,65.9443169 34.8179549,65.5824402 36.8241414,64.8670582 C38.8393989,64.1687997 40.2480381,62.4397062 41.0776499,59.6949987 L43.3688147,52.2196375 C43.586139,51.589112 43.7531952,51.036213 43.8548652,50.5773031 C43.9482201,50.115349 44,49.71542 44,49.3584901 C43.9981102,48.1027664 43.1121831,47.2218572 41.3267224,46.7267977" id="Fill-8" fill="#009EE2"></path>
                    <path d="M59.4048437,57.5105436 L55.316209,70.530672 C55.115055,71.1292095 54.8558396,71.5191266 54.5321951,71.7022694 C54.2122964,71.8850431 53.7122206,71.9743991 53.0166096,71.9784607 C52.4865667,71.9743991 52.1026134,71.9053512 51.8542611,71.7905177 C51.6096547,71.653899 51.4748028,71.459679 51.4770227,71.1834877 C51.4770227,71.1103783 51.515633,70.9608362 51.5954204,70.746308 C51.6272604,70.6551058 51.6493611,70.576827 51.6680906,70.530672 L55.7600965,57.4909738 C55.9612506,56.9086829 56.2081045,56.5331662 56.5246319,56.3463309 C56.8317946,56.1635573 57.2861705,56.0771552 57.877646,56.0742013 C58.5245605,56.075309 58.9736922,56.1366028 59.2538845,56.2713753 C59.5205916,56.3924859 59.6678049,56.6151374 59.6621861,56.9304681 C59.5340768,57.1881973 59.4524165,57.3809404 59.4048437,57.5105436 M68.7302272,52.6709195 C67.21614,52.2230318 64.060231,52 59.2538845,52 C53.711846,51.9977956 50.0644767,52.3290036 48.3361249,52.9844039 C46.6212582,53.6427582 45.3158169,55.3349835 44.4295403,58.0721571 L40.6278405,69.9225343 C40.4345528,70.558365 40.2682354,71.1609641 40.1652235,71.7103927 C40.0532215,72.2616675 39.9985316,72.7106629 40,73.0655022 C39.9992808,74.168421 40.7503309,74.9342241 42.2629198,75.3614343 C43.7747594,75.7927063 46.9059456,76.006496 51.6714619,76 C57.292164,76 60.9766175,75.6542414 62.7083407,74.9744712 C64.4520506,74.2836238 65.7410101,72.6006295 66.5782156,69.9166265 L70.2948838,58.0836035 C70.5353697,57.3798327 70.727159,56.7812952 70.8271742,56.2972221 C70.9459188,55.8020717 71.0032308,55.3996005 71,55.0739311 C71.0013579,53.9189495 70.2469364,53.1188072 68.7302272,52.6709195" id="Fill-10" fill="#009EE2"></path>
                    <polygon id="Fill-12" fill="#009EE2" points="77.0692836 46.0030441 88 46 78.8600151 75.9988585 68 76"></polygon>
                    <path d="M103.561858,57.802407 C103.529513,57.9009769 103.517102,57.9723551 103.517102,58.0188076 L99.5920575,70.5311446 C99.4498894,71.034191 99.1948894,71.3884385 98.8319469,71.6021955 C98.4720133,71.8117982 97.9672788,71.921698 97.3184956,71.9210467 C96.8032301,71.9239639 96.4015487,71.861272 96.1179646,71.7222922 C95.8595796,71.5980412 95.7144027,71.4061886 95.7185398,71.157309 C95.7185398,71.1433355 95.7324558,71.0613827 95.7696903,70.9344881 C95.8189602,70.7928647 95.8479204,70.6606828 95.8595796,70.5322776 L99.7425,58.0154086 C99.9155088,57.5168941 100.188562,57.1626467 100.543606,56.9549323 C100.909934,56.7302231 101.410531,56.6218339 102.060066,56.6262295 C102.560664,56.6229669 102.95219,56.6860366 103.233518,56.8246387 C103.521615,56.9526663 103.663783,57.1301677 103.665288,57.3601642 C103.664535,57.4288987 103.628053,57.5807191 103.561858,57.802407 M113.140907,52.9294275 C111.913296,52.3017524 110.164779,52.0037766 107.894226,52 C106.803142,52.0015107 105.716195,52.0959263 104.640531,52.2975981 C103.568628,52.5068231 102.371106,52.8308575 101.046084,53.2866962 L101.391726,52.1367138 L90.2322788,52.1333149 L81,81.9958457 L92.0594027,82 L94.1881637,75.2160481 C95.2138053,75.6654665 96.2108628,75.9910116 97.1624115,76.1957047 C98.1218584,76.4003978 99.140354,76.505388 100.243473,76.4993454 C103.282035,76.5027443 105.594336,76.0412407 107.158938,75.111058 C108.7525,74.1721889 109.918805,72.4190795 110.702611,69.8324689 L114.247788,58.7095523 C114.51708,57.7752153 114.711903,57.0742736 114.824358,56.6301425 C114.937942,56.1841231 115,55.8385619 115,55.6025228 C114.995863,54.4427212 114.376416,53.55106 113.140907,52.9294275" id="Fill-14" fill="#009EE2"></path>
                    <path d="M119.219714,52.0055685 L130.298512,52.0007425 L124.604329,70.1519281 C124.576356,70.2458507 124.537567,70.3431144 124.505491,70.4767591 C124.4764,70.6040929 124.449173,70.6917044 124.449173,70.74145 C124.44507,70.9990874 124.579713,71.1891599 124.818789,71.3101827 C125.065697,71.4349178 125.483054,71.4958004 126.041395,71.4906031 C126.684401,71.4958004 127.171877,71.3996504 127.501586,71.2106916 C127.846586,71.0105957 128.078575,70.6701728 128.225527,70.1519281 L133.933137,52.0018562 L145,52 L137.484216,75.8656128 L126.486726,75.8637566 L126.785104,74.7533914 C125.494617,75.1851382 124.321243,75.4988322 123.217242,75.6952157 C122.134127,75.8956828 121.04691,75.9974014 119.968645,76 C117.712902,75.9955452 115.98902,75.6974431 114.795878,75.0945568 C113.585207,74.489443 112.998893,73.6077588 113,72.4598988 C112.998147,72.1484323 113.215963,71.1965846 113.66465,69.618834 L113.728056,69.4024037 L119.219714,52.0055685 Z" id="Fill-16" fill="#009EE2"></path>
                    <path d="M143.459713,67.3528092 L154.599597,67.3568703 L153.629474,70.5289586 C153.603924,70.5544328 153.588144,70.5924595 153.588144,70.6386084 C153.517508,70.8822744 153.469039,71.0720385 153.446871,71.1787347 C153.441611,71.4589506 153.562219,71.6557293 153.804186,71.788638 C154.055171,71.9012413 154.446301,71.968434 154.971565,71.9621578 C155.664027,71.9691724 156.171256,71.8820434 156.49438,71.6974479 C156.817128,71.5143292 157.074876,71.1292631 157.269502,70.531543 L157.888322,68.4888097 C157.930779,68.3544242 157.959709,68.2189311 157.990519,68.1018976 C158.012311,67.9911403 158.017571,67.8925663 158.017947,67.8080216 C158.02471,67.4329236 157.808668,67.1298179 157.384474,66.8957509 C156.961407,66.6672217 156.035619,66.3567321 154.602227,65.9893872 L150.562427,64.9316552 C148.570331,64.4391545 147.207199,63.9676977 146.452366,63.5132237 C145.715569,63.0687178 145.336462,62.5123471 145.337965,61.8426348 C145.337965,61.5864163 145.484498,60.9403322 145.795974,59.9065977 C145.838055,59.7589213 145.874125,59.6489024 145.90268,59.5769102 L146.720259,57.1037002 C147.38905,55.026263 148.594753,53.6547187 150.343379,52.9964513 C152.093508,52.3219395 155.727149,51.9985283 161.252191,52 C166.068992,52.0007434 169.222455,52.2193044 170.727987,52.6700865 C172.238028,53.1175459 173.001126,53.9186902 173,55.0731502 C172.996617,55.4080064 172.945143,55.828884 172.829795,56.3250766 C172.714072,56.8275454 172.549128,57.4182509 172.292508,58.0905475 L171.625219,60.1930898 L160.472185,60.1938282 L161.296151,57.4876588 C161.420141,57.252115 161.506933,57.0619817 161.547887,56.9287037 C161.547887,56.6185834 161.417886,56.3989148 161.148116,56.2693288 C160.875715,56.1349433 160.423341,56.0710732 159.788365,56.0710732 C159.19547,56.074396 158.750612,56.163371 158.438008,56.3494432 C158.123901,56.54253 157.876298,56.9242735 157.685806,57.5138713 L157.273259,58.9980188 C157.244328,59.0792408 157.20375,59.2165798 157.159039,59.398591 C157.095917,59.5883551 157.068864,59.7412001 157.068864,59.8449428 C157.068489,60.4906577 158.160723,61.0843167 160.318514,61.6281349 C161.019993,61.8079309 161.58546,61.9556072 161.996879,62.0678413 L166.29593,63.2145483 C167.416343,63.525407 168.267361,63.9093656 168.81592,64.3427957 C169.379884,64.7788102 169.665811,65.2923547 169.668817,65.8815834 C169.658672,66.0765162 169.632372,66.3175979 169.567747,66.5760315 C169.500868,66.8518171 169.371618,67.2590347 169.172108,67.7910388 L168.57771,69.9271775 C167.735334,72.5849829 166.454486,74.2688626 164.712247,74.9596188 C162.974141,75.6577588 159.293535,76.0007372 153.680197,76 C148.905478,75.9944609 145.785454,75.7884524 144.269402,75.3627753 C142.752598,74.928976 141.995511,74.1702886 142,73.0686229 C142,72.6868795 142.0545,72.2279752 142.161958,71.6889565 C142.277681,71.1359085 142.438867,70.5525869 142.643262,69.9316077 L143.459713,67.3528092 Z" id="Fill-18" fill="#009EE2"></path>
                    <path d="M185.814583,70.5049216 C185.617433,71.0999018 185.36166,71.4944638 185.042412,71.6852857 C184.713081,71.8753693 184.205643,71.9643211 183.515991,71.9665356 C183.0093,71.9632138 182.615,71.9008368 182.366322,71.776452 C182.129219,71.6432089 182.006374,71.4531252 182.003386,71.1733516 C182.033258,71.0611469 182.076571,70.8714324 182.150129,70.6270918 C182.150129,70.5842769 182.158344,70.5488438 182.183734,70.5255908 L182.926781,68.1261077 C183.120944,67.4226137 183.414056,66.9505418 183.772884,66.6715064 C184.150382,66.4028056 184.70636,66.1986964 185.449034,66.0422003 L187.399999,65.6421019 L185.814583,70.5049216 Z M198.739867,52.6732296 C197.242945,52.2199816 194.084062,52.0007395 189.290848,52 C183.769897,51.9992631 180.156224,52.315208 178.419585,52.9699816 C176.691907,53.6251242 175.379066,55.3233279 174.492637,58.0656998 L173.845925,60.1894694 L184.92106,60.1883621 L185.738411,57.4895433 C185.92436,56.890503 186.191707,56.5110739 186.532239,56.3387068 C186.863063,56.1619105 187.388424,56.0666841 188.100106,56.0633623 C188.649363,56.0677914 189.040303,56.132383 189.275913,56.2471713 C189.507415,56.3612215 189.621299,56.5922747 189.624659,56.9244597 C189.576492,57.0495827 189.485011,57.2385591 189.369634,57.4910197 L188.404046,60.6316445 L177.767272,63.3422743 C175.618783,63.9095725 174.123354,64.4720725 173.278371,65.0589327 C172.415093,65.6443165 171.824762,66.4828991 171.479003,67.5809552 L170.723634,69.9095722 C170.425668,70.8179137 170.226651,71.4737945 170.13181,71.8831203 C170.035475,72.292077 170,72.6353348 170,72.9143702 C169.99851,73.9832678 170.538432,74.7565207 171.598488,75.2466782 C172.666011,75.7434793 174.306315,75.99594 176.540311,76 C177.736654,75.9937254 178.943078,75.8933317 180.117765,75.703248 C181.283116,75.515379 182.576167,75.2034941 183.991317,74.7971211 L183.697086,75.8626969 L194.700156,75.8615896 L200.303627,58.0863691 C200.543343,57.375124 200.715476,56.7746073 200.835708,56.2678406 C200.945858,55.7739922 201,55.3694647 201,55.0727127 C200.997386,53.9178161 200.243884,53.1179884 198.739867,52.6732296 L198.739867,52.6732296 Z" id="Fill-20" fill="#009EE2"></path>
                    <polygon id="Fill-22" fill="#009EE2" points="27.9014375 6 17 40.9914021 119.071202 41 130 6.00299056"></polygon>
                    <polygon id="Fill-24" fill="#82CFF4" points="133.059206 6 122 40.9988783 177.939277 41 189 6.00299133"></polygon>
                    <polygon id="Fill-26" fill="#BCE3F9" points="190.986229 6 180 41 206.013771 40.9970091 217 6.00523415"></polygon>
                </g>
            </g>
        </g>
    </g>
</svg>