<?xml version="1.0" encoding="UTF-8"?>
<svg width="26px" height="19px" viewBox="0 0 26 19" version="1.1" xmlns="http://www.w3.org/2000/svg" xmlns:xlink="http://www.w3.org/1999/xlink">
    <!-- Generator: sketchtool 63.1 (101010) - https://sketch.com -->
    <title>5BDFEBB1-6D19-4759-B8EC-687E09B881A8xxxhdpi/</title>
    <desc>Created with sketchtool.</desc>
    <g id="Page-1" stroke="none" stroke-width="1" fill="none" fill-rule="evenodd">
        <g id="Home" transform="translate(-883.000000, -3403.000000)" fill="#000A4A" fill-rule="nonzero">
            <g id="Group-8" transform="translate(137.000000, 3384.000000)">
                <g id="mail-3" transform="translate(746.000000, 19.000000)">
                    <path d="M23.8333164,0 L2.16668359,0 C0.971699219,0 0,0.946783854 0,2.1111276 L0,16.8889219 C0,18.0532161 0.971699219,19 2.16668359,19 L23.8333672,19 C25.0283008,19 26,18.0532161 26,16.8888724 L26,2.1111276 C26,0.946783854 25.0283008,0 23.8333164,0 Z M2.16668359,1.05553906 L23.8333672,1.05553906 C23.9131953,1.05553906 23.9835273,1.08389062 24.0584297,1.09992188 C22.1826211,2.77266406 15.9627305,8.31690365 13.7860937,10.2277396 C13.6157734,10.3772161 13.34125,10.5555391 13.0000508,10.5555391 C12.6588516,10.5555391 12.3843281,10.3772161 12.2134492,10.2272448 C10.0370156,8.31670573 3.81676953,2.77216927 1.94126562,1.10002083 C2.01632031,1.08398958 2.08680469,1.05553906 2.16668359,1.05553906 Z M1.08331641,16.8888724 L1.08331641,2.1111276 C1.08331641,2.00771615 1.11530859,1.91390365 1.14394922,1.81939844 C2.57963672,3.09972135 6.91960547,6.96820052 9.73369922,9.46160417 C6.92874609,11.8092422 2.58766016,15.8194297 1.14054687,17.1639766 C1.11500391,17.0742214 1.08331641,16.9864453 1.08331641,16.8888724 Z M23.8333164,17.9444609 L2.16668359,17.9444609 C2.08015234,17.9444609 2.00321875,17.9150703 1.92242578,17.8962682 C3.41778125,16.5072891 7.78649219,12.4740443 10.5421367,10.1770729 C10.9013633,10.4945807 11.2295117,10.7840833 11.4881914,11.0111927 C11.9346602,11.4039583 12.45725,11.6111276 13,11.6111276 C13.54275,11.6111276 14.0653398,11.4039089 14.51125,11.0116875 C14.7700312,10.7844792 15.0984336,10.4947292 15.4578633,10.1770729 C18.2136602,12.4737969 22.5817617,16.5067448 24.0775742,17.8962682 C23.9967812,17.9150703 23.9199492,17.9444609 23.8333164,17.9444609 Z M24.9166836,16.8888724 C24.9166836,16.9863958 24.8849961,17.0742214 24.8595039,17.1639766 C23.411832,15.818737 19.0712539,11.8089948 16.2663516,9.46165365 C19.0805469,6.96825 23.4198555,3.10011719 24.8560508,1.81929948 C24.8846914,1.91380469 24.9166836,2.00766667 24.9166836,2.11107813 L24.9166836,16.8888724 L24.9166836,16.8888724 Z" id="Shape"></path>
                </g>
            </g>
        </g>
    </g>
</svg>