<?xml version="1.0" encoding="UTF-8"?>
<svg width="46px" height="46px" viewBox="0 0 46 46" version="1.1" xmlns="http://www.w3.org/2000/svg" xmlns:xlink="http://www.w3.org/1999/xlink">
    <!-- Generator: sketchtool 63.1 (101010) - https://sketch.com -->
    <title>0AAD1989-AB2C-468C-8A79-14DB6ECB7B58xxxhdpi/</title>
    <desc>Created with sketchtool.</desc>
    <g id="Page-1" stroke="none" stroke-width="1" fill="none" fill-rule="evenodd">
        <g id="Home" transform="translate(-454.000000, -3389.000000)" fill-rule="nonzero">
            <g id="Group-8" transform="translate(137.000000, 3384.000000)">
                <g id="Group-5-Copy">
                    <g id="Group-5">
                        <g id="Group-2" transform="translate(317.000000, 5.000000)">
                            <g id="noun_Plus_2762359" fill="#FFFFFF">
                                <g id="Group">
                                    <path d="M23.1858586,45.369863 C19.3757576,45.369863 15.5191919,44.4439474 12.0808081,42.453229 C11.430303,42.0828627 11.1979798,41.2958345 11.569697,40.6476936 C11.9414141,39.9995527 12.7313131,39.7680738 13.3818182,40.13844 C21.1878788,44.536539 31.0848485,43.1476656 37.4505051,36.8514398 C41.2606061,33.0551859 43.3515152,28.0552418 43.3515152,22.6849315 C43.3515152,17.3146212 41.2606061,12.3146771 37.4505051,8.51842326 C29.5979798,0.694436679 16.8666667,0.694436679 9.01414141,8.51842326 C1.16161616,16.3424098 1.16161616,29.0274532 9.01414141,36.8514398 C9.52525253,37.3606933 9.52525253,38.2403131 9.01414141,38.7495667 C8.5030303,39.2588202 7.62020202,39.2588202 7.10909091,38.7495667 C-1.76565657,29.907073 -1.76565657,15.5090858 7.10909091,6.66659212 C15.9838384,-2.17590159 30.4343434,-2.17590159 39.3090909,6.66659212 C43.630303,10.9258037 46,16.6201845 46,22.6849315 C46,28.7496785 43.630303,34.4440593 39.3090909,38.7495667 C34.9414141,43.1013699 29.0868687,45.369863 23.1858586,45.369863 Z" id="Path"></path>
                                </g>
                            </g>
                            <g id="noun_call_2640501" transform="translate(23.000000, 23.000000) scale(-1, 1) translate(-23.000000, -23.000000) translate(9.907692, 9.907692)" fill="#000A4A">
                                <g id="Group">
                                    <path d="M24.624034,19.1076631 L20.9362636,16.5308377 C20.4540295,16.1950804 19.8903577,16.0174738 19.3058399,16.0174738 C18.3761148,16.0174738 17.5036464,16.4733031 16.9722161,17.2359834 L16.1161464,18.4628313 C14.6813958,17.5005867 13.0801573,16.157002 11.5545188,14.6313635 C10.0286023,13.105447 8.68501763,11.5044844 7.72332888,10.0697338 L8.94934301,9.21394202 C10.236505,8.31757034 10.553084,6.53928004 9.65448872,5.24906073 L7.0782192,1.56184673 C6.53928443,0.791106051 5.66987334,0.331107535 4.75265581,0.331107535 C4.43496498,0.331107535 4.12311105,0.386974405 3.82598813,0.496762569 C3.48911913,0.621559755 3.17531956,0.774151398 2.86735684,0.967322991 L2.3581621,1.32587166 C2.23086343,1.42509792 2.11245899,1.53321841 1.99905752,1.64661988 C1.37785108,2.26782631 0.936752851,3.05385397 0.688270243,3.98330052 C-0.373200898,7.96263498 2.2564343,13.9790273 7.23164465,18.9542376 C11.4097096,23.1323025 16.429112,25.7280282 20.3308999,25.7283061 C20.3311778,25.7283061 20.3314558,25.7283061 20.3317337,25.7283061 C20.9993569,25.7283061 21.6286237,25.6504816 22.2028575,25.497612 C23.1323046,25.2491295 23.9183323,24.8080312 24.5387048,24.1873807 C24.6523842,24.0742571 24.7607826,23.9555747 24.8764076,23.8057625 L25.2355122,23.2932325 C25.4114512,23.0113966 25.5640428,22.697319 25.689118,22.3598942 C26.1232678,21.1869676 25.6855049,19.8494976 24.624034,19.1076631 Z M24.6212546,21.9646568 C24.523418,22.2298161 24.4050136,22.4735736 24.2868871,22.6642437 L23.9611359,23.1292452 C23.8913718,23.2190213 23.8146591,23.3015709 23.7340551,23.3818969 C23.256546,23.8599619 22.6422882,24.2015559 21.9090701,24.3975069 C21.4310051,24.5250835 20.9004087,24.5898446 20.3317338,24.5898446 C20.3314559,24.5898446 20.3311779,24.5898446 20.3309,24.5898446 C16.7198423,24.5895667 12.0089585,22.1216956 8.0365727,18.1493098 C3.41240651,13.5251436 0.843085643,7.8206053 1.78837559,4.27708815 C1.98432662,3.54387002 2.32592064,2.92961275 2.80398557,2.45154782 C2.88403365,2.37149974 2.96686117,2.29450906 3.03467966,2.24114368 L3.4960679,1.91594834 C3.71286479,1.78058925 3.95662227,1.66246277 4.22122566,1.56462623 C4.39132781,1.5015328 4.57032425,1.46956913 4.75265598,1.46956913 C5.2985394,1.46956913 5.81912986,1.74806972 6.145159,2.21418303 L8.72059472,5.90028526 C9.2600854,6.67463925 9.07080507,7.74194694 8.29839672,8.2800479 L6.62016654,9.45130692 C6.37112808,9.62502238 6.30247572,9.96383696 6.46396159,10.2209358 C7.47984953,11.8366284 9.00187476,13.6888531 10.7495911,15.4362915 C12.4967515,17.1837299 14.3486961,18.7057551 15.9649446,19.722199 C16.2223214,19.8836848 16.5608581,19.8147546 16.7348515,19.565994 L17.9063885,17.88693 C18.4255892,17.1412044 19.5351444,16.941918 20.2850393,17.464732 L23.9719759,20.0410016 C24.608747,20.4859909 24.8758519,21.2770216 24.6212546,21.9646568 Z" id="Shape"></path>
                                </g>
                            </g>
                        </g>
                    </g>
                </g>
            </g>
        </g>
    </g>
</svg>